<svg width="25" height="23" viewBox="0 0 25 23" fill="none" xmlns="http://www.w3.org/2000/svg">
<path d="M20.6747 3.71464C24.7752 7.81514 24.7752 14.4634 20.6747 18.5639M17.5814 6.80832C19.9734 9.20029 19.9734 13.0784 17.5814 15.4704M6.25 6.76432L11.7563 1.25804C12.3075 0.706816 13.25 1.09721 13.25 1.87676V20.4019C13.25 21.1814 12.3075 21.5718 11.7563 21.0206L6.25 15.5143H3.63556C2.60966 15.5143 1.64856 14.9234 1.3761 13.9344C1.13095 13.0444 1 12.1072 1 11.1393C1 10.1715 1.13095 9.2342 1.3761 8.34426C1.64856 7.3552 2.60966 6.76432 3.63556 6.76432H6.25Z" stroke="white" stroke-width="2" stroke-linecap="round" stroke-linejoin="round"/>
</svg>
